HIERARCHY
ROOT joint_0
{
	OFFSET 0.000000 0.000000 0.000000
	CHANNELS 6 Xposition Yposition Zposition Zrotation Yrotation Xrotation 
	JOINT joint_1
	{
		OFFSET 0.000000 0.000000 0.000000
		CHANNELS 3 Zrotation Yrotation Xrotation
		JOINT joint_2
		{
			OFFSET 1.363060 -1.794630 0.839290
			CHANNELS 3 Zrotation Yrotation Xrotation
			JOINT joint_3
			{
				OFFSET 2.448110 -6.726130 0.000000
				CHANNELS 3 Zrotation Yrotation Xrotation
				JOINT joint_4
				{
					OFFSET 2.562200 -7.039590 0.000000
					CHANNELS 3 Zrotation Yrotation Xrotation
					JOINT joint_5
					{
						OFFSET 0.157640 -0.433110 2.322550
						CHANNELS 3 Zrotation Yrotation Xrotation
						End Site
						{
							OFFSET 0.000000 0.000000 0.000000
						}
					}
				}
			}
		}
	}
	JOINT joint_6
	{
		OFFSET 0.000000 0.000000 0.000000
		CHANNELS 3 Zrotation Yrotation Xrotation
		JOINT joint_7
		{
			OFFSET -1.305520 -1.794630 0.839290
			CHANNELS 3 Zrotation Yrotation Xrotation
			JOINT joint_8
			{
				OFFSET -2.542530 -6.985550 0.000000
				CHANNELS 3 Zrotation Yrotation Xrotation
				JOINT joint_9
				{
					OFFSET -2.568260 -7.056230 0.000000
					CHANNELS 3 Zrotation Yrotation Xrotation
					JOINT joint_10
					{
						OFFSET -0.164730 -0.452590 2.363150
						CHANNELS 3 Zrotation Yrotation Xrotation
						End Site
						{
							OFFSET 0.000000 0.000000 0.000000
						}
					}
				}
			}
		}
	}
	JOINT joint_11
	{
		OFFSET 0.000000 0.000000 0.000000
		CHANNELS 3 Zrotation Yrotation Xrotation
		JOINT joint_12
		{
			OFFSET 0.028270 2.035590 -0.193380
			CHANNELS 3 Zrotation Yrotation Xrotation
			JOINT joint_13
			{
				OFFSET 0.056720 2.048850 -0.042750
				CHANNELS 3 Zrotation Yrotation Xrotation
				JOINT joint_14
				{
					OFFSET 0.000000 0.000000 0.000000
					CHANNELS 3 Zrotation Yrotation Xrotation
					JOINT joint_15
					{
						OFFSET -0.054170 1.746240 0.172020
						CHANNELS 3 Zrotation Yrotation Xrotation
						JOINT joint_16
						{
							OFFSET 0.104070 1.761360 -0.123970
							CHANNELS 3 Zrotation Yrotation Xrotation
							End Site
							{
								OFFSET 0.000000 0.000000 0.000000
							}
						}
					}
				}
				JOINT joint_17
				{
					OFFSET 0.000000 0.000000 0.000000
					CHANNELS 3 Zrotation Yrotation Xrotation
					JOINT joint_18
					{
						OFFSET 3.362410 1.200890 -0.311210
						CHANNELS 3 Zrotation Yrotation Xrotation
						JOINT joint_19
						{
							OFFSET 4.983000 -0.000000 -0.000000
							CHANNELS 3 Zrotation Yrotation Xrotation
							JOINT joint_20
							{
								OFFSET 3.483560 -0.000000 -0.000000
								CHANNELS 3 Zrotation Yrotation Xrotation
								JOINT joint_21
								{
									OFFSET 0.000000 0.000000 0.000000
									CHANNELS 3 Zrotation Yrotation Xrotation
									JOINT joint_22
									{
										OFFSET 0.715260 -0.000000 -0.000000
										CHANNELS 3 Zrotation Yrotation Xrotation
										End Site
										{
											OFFSET 0.000000 0.000000 0.000000
										}
									}
								}
								JOINT joint_23
								{
									OFFSET 0.000000 0.000000 0.000000
									CHANNELS 3 Zrotation Yrotation Xrotation
									End Site
									{
										OFFSET 0.000000 0.000000 0.000000
									}
								}
							}
						}
					}
				}
				JOINT joint_24
				{
					OFFSET 0.000000 0.000000 0.000000
					CHANNELS 3 Zrotation Yrotation Xrotation
					JOINT joint_25
					{
						OFFSET -3.136600 1.374050 -0.404650
						CHANNELS 3 Zrotation Yrotation Xrotation
						JOINT joint_26
						{
							OFFSET -5.241900 -0.000000 -0.000000
							CHANNELS 3 Zrotation Yrotation Xrotation
							JOINT joint_27
							{
								OFFSET -3.444170 -0.000000 -0.000000
								CHANNELS 3 Zrotation Yrotation Xrotation
								JOINT joint_28
								{
									OFFSET 0.000000 0.000000 0.000000
									CHANNELS 3 Zrotation Yrotation Xrotation
									JOINT joint_29
									{
										OFFSET -0.622530 -0.000000 -0.000000
										CHANNELS 3 Zrotation Yrotation Xrotation
										End Site
										{
											OFFSET 0.000000 0.000000 0.000000
										}
									}
								}
								JOINT joint_30
								{
									OFFSET 0.000000 0.000000 0.000000
									CHANNELS 3 Zrotation Yrotation Xrotation
									End Site
									{
										OFFSET 0.000000 0.000000 0.000000
									}
								}
							}
						}
					}
				}
			}
		}
	}
}
MOTION
Frames: 8
Frame Time: 0.041667
9.372200 17.869300 -17.319800 -3.231600 -7.597000 -2.016800 0.000000 0.000000 0.000000 -13.810200 2.500200 3.350200 1.128100 6.746200 18.965600 0.822900 0.740200 -17.423700 0.059800 -1.577900 -4.340500 0.000000 0.000000 0.000000 22.612400 4.586400 1.003100 -1.950100 -8.761300 25.051500 -0.673400 -4.265200 -17.633400 -0.043400 -1.345300 3.699400 1.173000 -0.395100 2.301900 2.703900 -0.462700 0.003000 2.131500 -0.231800 -1.274500 -6.707900 -3.765300 -9.328200 -3.013200 -3.233500 27.837700 -0.318400 -2.557300 10.556000 0.000000 0.000000 0.000000 -59.189700 -43.605500 29.661100 154.407300 -36.803700 -111.357500 0.000000 0.000000 -10.119500 38.942700 -13.733500 -10.860500 -7.125000 0.000000 0.000000 7.720900 12.653500 -5.897100 0.000000 0.000000 0.000000 87.391700 1.133600 15.035600 -10.966100 18.236200 -1.765300 0.000000 0.000000 -7.558900 -18.645700 -20.026800 6.591600 7.125000 0.000000 0.000000 9.815400 -50.762800 -1.405400 
9.369200 17.865800 -17.321500 -3.209500 -7.535400 -2.086200 0.000000 0.000000 0.000000 -13.821800 2.504100 3.507500 1.110900 6.696200 18.818500 0.834200 0.750500 -17.545300 0.071200 -1.721100 -4.735600 0.000000 0.000000 0.000000 22.634900 4.558700 1.041000 -1.975500 -8.814800 25.217800 -0.676200 -4.396800 -17.748100 -0.039100 -1.275700 3.507800 1.153300 -0.341400 2.409300 2.626700 -0.391900 0.091500 2.061100 -0.196700 -1.246400 -6.807400 -3.913600 -9.290600 -2.521800 -3.571400 27.392300 -0.157900 -2.653900 10.398800 0.000000 0.000000 0.000000 -59.399700 -44.454100 30.046200 154.287000 -36.923900 -111.285300 0.000000 0.000000 -10.247900 39.064500 -14.670400 -11.615800 -7.125000 0.000000 0.000000 7.640700 11.473800 -6.023200 0.000000 0.000000 0.000000 87.658300 1.125600 15.514600 -10.915500 18.158600 -1.749500 0.000000 0.000000 -9.764200 -19.789600 -19.523500 6.856800 7.125000 0.000000 0.000000 8.534900 -50.434000 -1.150300 
9.373300 17.853600 -17.331700 -2.911000 -7.352700 -2.268800 0.000000 0.000000 0.000000 -14.188900 2.225800 3.726300 1.112300 6.700300 18.830500 0.849700 0.759800 -17.708800 0.067700 -1.678500 -4.618100 0.000000 0.000000 0.000000 22.292500 4.366000 1.126900 -1.988900 -8.842900 25.305000 -0.691500 -4.436300 -17.940000 -0.035000 -1.208100 3.321700 0.745100 -0.422200 2.680700 2.637400 -0.504700 0.109200 2.308000 -0.250400 -1.373700 -7.084700 -3.792100 -9.039800 -2.215100 -3.452600 27.181000 0.020300 -2.586600 10.282000 0.000000 0.000000 0.000000 -59.650300 -44.630900 30.304800 154.155300 -37.054900 -111.206100 0.000000 0.000000 -9.165600 39.804000 -14.910900 -12.102000 -7.125000 0.000000 0.000000 8.076200 11.009300 -6.451300 0.000000 0.000000 0.000000 87.615200 1.189100 14.682800 -10.555400 17.603500 -1.638900 0.000000 0.000000 -7.494300 -20.083000 -21.200300 7.531700 7.125000 0.000000 0.000000 8.804100 -52.208800 -1.572400 
9.367600 17.852600 -17.337500 -3.038200 -7.253000 -2.268600 0.000000 0.000000 0.000000 -14.003700 2.215200 3.467500 1.148800 6.805500 19.140500 0.865300 0.539400 -17.782300 0.052100 -1.473200 -4.051800 0.000000 0.000000 0.000000 22.575700 4.675900 1.248200 -1.969300 -8.801800 25.177300 -0.680600 -4.879600 -18.114600 -0.038700 -1.269200 3.489800 0.703600 -0.444300 2.671300 2.766200 -0.535800 0.171200 2.464600 -0.265900 -1.302200 -7.277600 -3.819100 -9.020000 -1.996400 -3.518100 26.864500 0.127200 -2.602800 10.172600 0.000000 0.000000 0.000000 -59.861400 -45.270100 30.231400 154.276000 -36.934800 -111.278700 0.000000 0.000000 -9.368900 38.884500 -12.941000 -10.237500 -7.125000 0.000000 0.000000 7.814500 13.643500 -5.806100 0.000000 0.000000 0.000000 87.452400 0.965900 14.882300 -10.367300 17.312000 -1.582500 0.000000 0.000000 -7.512100 -19.981300 -19.036400 6.763400 7.125000 0.000000 0.000000 8.198000 -49.962300 -1.008800 
9.359800 17.850600 -17.360300 -3.914300 -7.080000 -2.091700 0.000000 0.000000 0.000000 -12.933000 2.023900 2.993400 1.220600 7.007600 19.737900 0.901900 0.147100 -18.006800 0.038100 -1.259800 -3.463900 0.000000 0.000000 0.000000 23.713500 4.970400 1.423600 -1.907900 -8.671600 24.773400 -0.666200 -5.240900 -18.208200 -0.054600 -1.508000 4.147700 1.401700 -0.530200 2.744700 3.020500 -0.629100 0.313500 2.337600 -0.316600 -1.198500 -7.325200 -3.722000 -8.993200 -1.573900 -3.493900 26.220300 0.296200 -2.532100 9.937800 0.000000 0.000000 0.000000 -59.811600 -45.444100 30.224500 153.949900 -37.258200 -111.082000 0.000000 0.000000 -8.374700 39.859200 -14.382500 -11.716400 -7.125000 0.000000 0.000000 8.205600 11.651600 -6.447500 0.000000 0.000000 0.000000 87.598500 1.301600 13.799700 -10.306700 17.217900 -1.564500 0.000000 0.000000 -5.798300 -19.302000 -20.672000 7.048200 7.125000 0.000000 0.000000 9.393800 -51.531600 -1.522400 
9.361000 17.855000 -17.371100 -4.002000 -6.977000 -1.968900 0.000000 0.000000 0.000000 -12.839900 1.903700 2.545900 1.284200 7.181000 20.252600 0.928400 -0.005500 -18.216100 0.043400 -1.344900 -3.698400 0.000000 0.000000 0.000000 23.754700 4.780100 1.323000 -1.867400 -8.584200 24.503000 -0.635100 -5.310200 -17.918500 -0.058000 -1.553600 4.273500 1.445400 -0.573200 2.796400 3.007800 -0.683200 0.304700 2.302700 -0.343800 -1.235600 -6.924600 -3.677200 -8.415700 -1.644400 -3.556700 25.297800 0.221800 -2.507500 9.483500 0.000000 0.000000 0.000000 -59.782500 -45.600400 30.324400 153.936400 -37.271400 -111.073900 0.000000 0.000000 -7.642500 39.965900 -17.033600 -13.793500 -7.125000 0.000000 0.000000 7.790800 8.354800 -6.639400 0.000000 0.000000 0.000000 87.634000 0.946800 14.442400 -10.492800 17.506700 -1.620000 0.000000 0.000000 -6.693600 -18.925600 -20.376500 6.808000 7.125000 0.000000 0.000000 9.661500 -51.166100 -1.479300 
9.368600 17.847000 -17.395700 -3.924400 -6.802200 -1.995600 0.000000 0.000000 0.000000 -12.986500 1.491700 2.463600 1.315700 7.265100 20.503100 0.947100 0.115900 -18.441100 0.039600 -1.284300 -3.531500 0.000000 0.000000 0.000000 23.620300 4.580800 1.189100 -1.865300 -8.579800 24.489400 -0.638900 -5.227900 -17.902100 -0.045300 -1.372900 3.775600 1.311200 -0.625500 3.037600 3.027200 -0.753500 0.439300 2.402800 -0.378700 -1.228600 -6.777400 -3.565200 -8.403900 -1.634300 -3.435400 24.817000 0.220600 -2.424000 9.302800 0.000000 0.000000 0.000000 -59.880400 -46.069000 30.280400 153.912000 -37.295500 -111.059100 0.000000 0.000000 -6.945900 40.126800 -18.388800 -14.890200 -7.125000 0.000000 0.000000 7.632900 6.655100 -6.758600 0.000000 0.000000 0.000000 87.608200 0.828000 15.487600 -10.656400 17.759800 -1.669600 0.000000 0.000000 -8.698500 -19.572500 -20.020400 6.940000 7.125000 0.000000 0.000000 8.907200 -50.909300 -1.305700 
9.358200 17.841000 -17.410300 -4.329800 -6.585200 -1.896400 0.000000 0.000000 0.000000 -12.396200 1.611900 2.142600 1.339000 7.326700 20.686800 0.949900 -0.175500 -18.368800 0.078200 -1.804400 -4.965500 0.000000 0.000000 0.000000 24.206400 4.738100 1.144900 -1.874700 -8.600000 24.551700 -0.623000 -5.762300 -18.114300 -0.046700 -1.394300 3.834300 1.419900 -0.591100 3.252500 3.170500 -0.690900 0.330600 2.491200 -0.347200 -1.462200 -6.658300 -3.448700 -7.831500 -1.485800 -3.382700 24.431700 0.273100 -2.362900 9.056200 0.000000 0.000000 0.000000 -60.310800 -46.109000 30.805600 153.859800 -37.346800 -111.027400 0.000000 0.000000 -6.362400 40.866000 -18.740400 -15.534300 -7.125000 0.000000 0.000000 8.020100 6.016100 -7.208000 0.000000 0.000000 0.000000 87.690500 0.465300 14.804900 -10.561500 17.613100 -1.640800 0.000000 0.000000 -7.770400 -18.449200 -19.308000 6.294700 7.125000 0.000000 0.000000 9.766700 -49.997800 -1.213500 
